<?xml version="1.0" encoding="UTF-8" standalone="no"?>
<!-- Created with Inkscape (http://www.inkscape.org/) -->

<svg
   width="256"
   height="256"
   viewBox="0 0 67.733332 67.733334"
   version="1.1"
   id="svg1"
   xml:space="preserve"
   sodipodi:docname="logo.svg"
   inkscape:version="1.3 (0e150ed6c4, 2023-07-21)"
   inkscape:export-filename="logo.png"
   inkscape:export-xdpi="96"
   inkscape:export-ydpi="96"
   xmlns:inkscape="http://www.inkscape.org/namespaces/inkscape"
   xmlns:sodipodi="http://sodipodi.sourceforge.net/DTD/sodipodi-0.dtd"
   xmlns="http://www.w3.org/2000/svg"
   xmlns:svg="http://www.w3.org/2000/svg"><sodipodi:namedview
     id="namedview1"
     pagecolor="#ffffff"
     bordercolor="#000000"
     borderopacity="0.25"
     inkscape:showpageshadow="2"
     inkscape:pageopacity="0.0"
     inkscape:pagecheckerboard="0"
     inkscape:deskcolor="#d1d1d1"
     inkscape:document-units="mm"
     inkscape:zoom="1.9380805"
     inkscape:cx="129.50959"
     inkscape:cy="160.72604"
     inkscape:window-width="1920"
     inkscape:window-height="991"
     inkscape:window-x="-9"
     inkscape:window-y="-9"
     inkscape:window-maximized="1"
     inkscape:current-layer="layer1" /><defs
     id="defs1" /><g
     inkscape:label="Camada 1"
     inkscape:groupmode="layer"
     id="layer1"
     transform="translate(98.470835,-128.52081)"><path
       id="path2"
       style="fill:#5aa02c;stroke-width:0.296906"
       d="m -35.194629,182.03596 c 0.409556,4.47475 -13.308158,6.62114 -29.419682,4.64162 -3.909505,-0.48033 -11.860813,-0.80472 -15.294294,-1.02628 -10.729692,-0.6924 -16.104902,-0.58115 -14.603201,-2.65971 1.501242,-2.07793 13.171639,-4.64162 29.419681,-4.64162 16.248042,0 29.663846,1.13317 29.897496,3.68599 z"
       sodipodi:nodetypes="ssssss" /><text
       xml:space="preserve"
       style="font-weight:900;font-size:10.1303px;line-height:0;font-family:Arial;-inkscape-font-specification:'Arial Heavy';letter-spacing:-0.818381px;fill:#c83737;stroke-width:0.217077"
       x="13.90822"
       y="154.22652"
       id="text2"
       transform="rotate(29.993581)"><tspan
         sodipodi:role="line"
         id="tspan2"
         style="font-size:10.1303px;letter-spacing:-0.818381px;fill:#c83737;stroke-width:0.217077"
         x="13.90822"
         y="154.22652">Família</tspan></text><text
       xml:space="preserve"
       style="font-weight:900;font-size:10.1303px;line-height:0;font-family:Arial;-inkscape-font-specification:'Arial Heavy';letter-spacing:-0.818381px;fill:#c83737;stroke-width:0.217077"
       x="-157.30385"
       y="89.125"
       id="text1"
       transform="rotate(-29.972303)"><tspan
         sodipodi:role="line"
         id="tspan1"
         style="font-size:10.1303px;letter-spacing:-0.818381px;fill:#c83737;stroke-width:0.217077"
         x="-157.30385"
         y="89.125">Bolsa</tspan></text><g
       id="g2"
       style="fill:#d4aa00"
       transform="translate(0,2.1842918)"><path
         id="rect1"
         style="fill:#d4aa00;fill-opacity:1;stroke-width:0.117529"
         d="m -65.21458,138.48666 31.051965,17.912 h -62.396971 z"
         sodipodi:nodetypes="cccc" /><rect
         style="fill:#d4aa00;fill-opacity:1;stroke-width:0.119202"
         id="rect2"
         width="43.778515"
         height="23.147259"
         x="-87.250359"
         y="156.19542" /></g><path
       style="fill:#ffffff;stroke-width:0.275076"
       d="m -73.080439,181.24544 c -0.357065,-0.0612 -0.600239,-0.24038 -0.793871,-0.5849 -0.160655,-0.28584 -0.173393,-0.44418 -0.3704,-4.60402 -0.112215,-2.36939 -0.207296,-4.31617 -0.211292,-4.32618 -0.004,-0.0101 -0.496994,-0.0181 -1.095552,-0.0181 -0.642569,0 -1.160918,-0.0331 -1.265633,-0.0808 -0.174903,-0.0797 -0.338963,-0.33942 -0.338963,-0.53661 0,-0.0556 0.546345,-2.09283 1.2141,-4.52717 1.146719,-4.1804 1.216399,-4.4715 1.255465,-5.24495 0.02275,-0.45039 0.02207,-0.81885 -0.0017,-0.81878 -0.07537,2e-4 -0.554773,1.04295 -0.708844,1.54177 -0.0818,0.26483 -0.205322,0.8289 -0.274504,1.25348 -0.182482,1.11995 -0.440053,1.45414 -1.120762,1.45414 -0.40023,0 -0.66685,-0.14713 -0.8822,-0.48683 -0.136567,-0.21543 -0.14463,-0.31579 -0.109308,-1.36068 0.04381,-1.29587 0.192063,-2.058 0.5987,-3.07774 0.650382,-1.63098 1.701608,-3.03907 3.110325,-4.16618 1.805675,-1.44472 3.426914,-1.63742 5.125331,-0.60922 1.905508,1.15357 3.657654,3.43852 4.236011,5.52415 0.334955,1.2079 0.491956,3.18691 0.284741,3.58924 -0.34189,0.66382 -1.189926,0.80909 -1.678342,0.2875 -0.227847,-0.24333 -0.237843,-0.27517 -0.417639,-1.33042 -0.141683,-0.83158 -0.502968,-1.92028 -0.797676,-2.4037 l -0.153487,-0.25178 -2.75e-4,0.7642 -2.76e-4,0.76419 1.237376,4.49003 c 0.680558,2.46951 1.237378,4.53948 1.237378,4.59994 0,0.2053 -0.160982,0.46433 -0.338962,0.54542 -0.104484,0.0476 -0.620391,0.0808 -1.255627,0.0808 h -1.078289 l -0.04502,0.60044 c -0.02476,0.33024 -0.130527,2.22163 -0.235034,4.20308 -0.104506,1.98145 -0.219871,3.72118 -0.25636,3.86607 -0.137762,0.54699 -0.577,0.88146 -1.157559,0.88146 -0.522461,0 -0.98372,-0.30318 -1.15696,-0.76048 -0.04122,-0.10881 -0.162283,-2.12301 -0.26903,-4.476 -0.106745,-2.35299 -0.206203,-4.29182 -0.221021,-4.3085 -0.01482,-0.0167 -0.04788,-0.009 -0.07346,0.0162 -0.02558,0.0255 -0.153128,1.9757 -0.28343,4.33356 -0.257938,4.6676 -0.255656,4.65155 -0.70705,4.97297 -0.259883,0.18505 -0.649708,0.26471 -1.000854,0.20451 z m 14.724585,-0.10613 c -0.398065,-0.17209 -0.438006,-0.34401 -0.524928,-2.2594 -0.04357,-0.96006 -0.09996,-2.09658 -0.125319,-2.52559 l -0.0461,-0.78002 -0.773182,-0.0206 c -0.764311,-0.0204 -0.773427,-0.0226 -0.794461,-0.20259 -0.0117,-0.10008 0.30762,-1.52074 0.709611,-3.15694 0.476855,-1.94092 0.728828,-3.10452 0.724956,-3.34782 l -0.0059,-0.37293 -0.217717,0.45245 c -0.119745,0.24885 -0.281854,0.77287 -0.36024,1.16448 -0.157382,0.7863 -0.331442,1.03955 -0.714466,1.03955 -0.264211,0 -0.564959,-0.23859 -0.620363,-0.49215 -0.05952,-0.2724 0.07937,-1.54269 0.223594,-2.04494 0.295037,-1.02744 1.004217,-2.09574 1.903765,-2.86782 1.005501,-0.86302 1.90423,-1.08425 2.886037,-0.71045 0.688422,0.26211 1.867726,1.39523 2.405434,2.31122 0.500516,0.85263 0.704988,1.55845 0.747299,2.57961 0.03469,0.83727 0.03247,0.85244 -0.15221,1.03712 -0.236687,0.23669 -0.556036,0.24468 -0.816737,0.0205 -0.158532,-0.13636 -0.2136,-0.27968 -0.300248,-0.78142 -0.05836,-0.33794 -0.210271,-0.86051 -0.337583,-1.16125 l -0.231467,-0.54683 -0.02156,0.36996 c -0.0162,0.27792 0.160306,1.0968 0.709612,3.29195 0.402153,1.60709 0.731186,2.98577 0.731186,3.06372 0,0.29529 -0.185696,0.37048 -0.914956,0.37048 -0.662351,0 -0.686305,0.006 -0.68878,0.16375 -0.01452,0.92718 -0.290393,4.94388 -0.346803,5.04928 -0.294593,0.55045 -1.115632,0.54037 -1.327278,-0.0163 -0.03794,-0.0998 -0.12164,-1.30167 -0.186007,-2.67087 -0.06437,-1.36921 -0.130119,-2.50311 -0.146118,-2.51979 -0.01601,-0.0167 -0.04219,-0.0167 -0.0582,0 -0.01601,0.0167 -0.09208,1.17662 -0.169051,2.57765 -0.145457,2.64775 -0.167784,2.78171 -0.489816,2.93863 -0.279794,0.13634 -0.44009,0.14765 -0.671946,0.0473 z m -7.846819,-0.0688 c -0.272901,-0.12181 -0.584666,-0.45008 -0.688563,-0.72503 -0.128135,-0.33909 -0.323407,-5.57201 -0.26037,-6.97753 l 0.05466,-1.21908 h 0.978406 c 1.089929,0 1.326223,-0.0677 1.5158,-0.4343 0.06072,-0.11741 0.110405,-0.33781 0.110405,-0.48976 0,-0.15195 -0.327511,-1.47837 -0.727805,-2.94761 -0.400293,-1.46924 -0.727805,-2.70572 -0.727805,-2.74774 0,-0.0443 0.175853,-0.077 0.418487,-0.078 0.701672,-0.003 1.338022,-0.41354 1.668099,-1.07704 0.178579,-0.35897 0.176923,-2.06581 -0.003,-3.06984 -0.144236,-0.80499 -0.541248,-2.01399 -0.886914,-2.70087 -0.645646,-1.28297 -1.787119,-2.70793 -2.854901,-3.56392 -0.308881,-0.24761 -0.567529,-0.47045 -0.574772,-0.4952 -0.02732,-0.0934 1.924017,-1.7165 2.342149,-1.94828 0.955751,-0.52976 2.080356,-0.70824 2.947617,-0.46781 1.619352,0.44894 3.590905,2.31588 4.686305,4.43765 0.460698,0.89236 1.176529,2.85746 1.092933,3.00032 -0.0145,0.0247 -0.157987,0.0661 -0.31888,0.0918 -0.706862,0.11302 -1.446232,0.59523 -1.823819,1.18946 l -0.195306,0.30736 -0.12985,-0.48931 c -0.143675,-0.54143 -0.460152,-1.39698 -0.556567,-1.50461 -0.03416,-0.0382 -0.06193,1.50393 -0.06193,3.43872 v 3.50785 l -0.246306,0.34588 c -0.494863,0.69491 -0.902621,1.69596 -1.059913,2.60207 -0.102748,0.59191 -0.113166,1.703 -0.01818,1.93879 0.116107,0.28822 0.493779,0.6876 0.750936,0.79412 l 0.227802,0.0944 -0.03672,0.69701 c -0.02271,0.43138 -0.141812,1.14732 -0.312475,1.87864 -0.26785,1.14776 -0.271952,1.18584 -0.143072,1.32825 0.07297,0.0806 0.168827,0.1466 0.213011,0.1466 0.131268,0 -0.116517,4.26878 -0.264049,4.54896 -0.325816,0.61875 -1.104453,0.86539 -1.727907,0.54734 -0.357941,-0.18261 -0.565122,-0.47354 -0.656569,-0.92197 -0.03963,-0.19433 -0.138205,-2.10554 -0.219054,-4.24711 -0.220371,-5.83739 -0.209714,-5.82616 -0.48375,-0.50945 -0.131017,2.54185 -0.257736,4.7287 -0.281602,4.85965 -0.05395,0.29606 -0.429991,0.73394 -0.742345,0.86445 -0.296124,0.12373 -0.720775,0.1217 -1.004211,-0.004 z m 8.660891,-16.57703 c -0.414545,-0.11332 -1.00733,-0.52476 -1.214412,-0.8429 -0.300996,-0.46243 -0.38676,-0.75673 -0.386749,-1.32708 9e-6,-0.46816 0.03053,-0.60094 0.214441,-0.93296 0.38874,-0.7018 0.985977,-1.08988 1.775281,-1.15356 0.891,-0.0719 1.676852,0.3745 2.087287,1.18572 0.416077,0.82237 0.246641,1.84254 -0.416088,2.50526 -0.492467,0.49247 -1.407716,0.74376 -2.05976,0.56552 z m -14.366552,-10.50942 c -0.599378,-0.16117 -1.090749,-0.45577 -1.580945,-0.94784 -1.679932,-1.68634 -1.259533,-4.52081 0.839397,-5.65949 1.375397,-0.74617 3.167671,-0.46122 4.252475,0.67607 0.728006,0.76325 1.031543,1.5994 0.977891,2.69382 -0.02971,0.60617 -0.06812,0.7695 -0.297189,1.26391 -0.31084,0.6709 -0.969917,1.3797 -1.561771,1.67962 -0.794192,0.40245 -1.805837,0.51551 -2.629858,0.29391 z m 7.072083,-2.54415 c -1.664827,-0.4484 -2.791019,-1.88422 -2.79497,-3.5634 -0.0017,-0.74805 0.100263,-1.18482 0.418001,-1.78947 0.668531,-1.27222 1.848677,-1.9749 3.297997,-1.96369 1.079467,0.008 1.828984,0.30334 2.572374,1.01241 1.504217,1.43478 1.544466,3.81951 0.08926,5.28844 -0.939644,0.9485 -2.348846,1.34802 -3.582661,1.01571 z"
       id="path1" /></g></svg>
